<svg width="17" height="16" viewBox="0 0 17 16" fill="none" xmlns="http://www.w3.org/2000/svg">
<path fill-rule="evenodd" clip-rule="evenodd" d="M16.3833 5.8322L11.0555 5.05813L8.67381 0.230426C8.60601 0.115117 8.48223 0.0443115 8.34847 0.0443115C8.2147 0.0443115 8.09093 0.115117 8.02313 0.230426L5.6403 5.05704L0.311069 5.8322C0.174365 5.85193 0.0607138 5.94756 0.0178921 6.07887C-0.0249296 6.21018 0.010503 6.35442 0.109295 6.45095L3.9655 10.2092L3.05534 15.5155C3.03212 15.6516 3.08806 15.789 3.19969 15.8702C3.31132 15.9513 3.45932 15.9621 3.58155 15.898L8.3472 13.3929L13.1128 15.897C13.2351 15.961 13.3831 15.9502 13.4947 15.8691C13.6063 15.7879 13.6623 15.6505 13.6391 15.5145L12.7289 10.2092L16.5851 6.45095C16.6839 6.35447 16.7193 6.2103 16.6766 6.07901C16.6339 5.94771 16.5203 5.85205 16.3837 5.8322H16.3833Z" fill="#F5A623"/>
</svg>
